<?xml version="1.0" encoding="utf-8"?>
<!-- Generator: Adobe Illustrator 23.0.0, SVG Export Plug-In . SVG Version: 6.00 Build 0)  -->
<svg version="1.1" id="Layer_1" xmlns="http://www.w3.org/2000/svg" xmlns:xlink="http://www.w3.org/1999/xlink" x="0px" y="0px"
	 viewBox="0 0 512 512" style="enable-background:new 0 0 512 512;" xml:space="preserve">
<style type="text/css">
	.st0{fill:#06C129;}
	.st1{fill:#282828;}
</style>
<g id="Cloud_network">
	<path class="st0" d="M88,280h16v-16H88c-30.9,0.1-56.1-24.9-56.2-55.8c-0.1-25.8,17.4-48.2,42.4-54.5h0.1l0,0
		c13.6-3.4,28-1.6,40.4,5.1l7.6-14.1C111.8,139,100,136,88,136c-2.1,0-4.1,0.2-6.2,0.4c7.4-32.8,36.5-56.2,70.2-56.4
		c10.5,0,21,2.3,30.5,6.8h0.1l0,0c18.3,8.6,32.1,24.4,38.2,43.7l15.3-4.8c-6.7-21.2-21.2-39.2-40.6-50.1
		c11.2-33.5,47.5-51.5,81-40.3c25.4,8.5,42.8,32.1,43.6,58.9c-11.1,4.3-21.2,10.9-29.8,19.2l11.2,11.4c8.1-8,18-14,28.9-17.5l0,0
		c37.9-11.9,78.4,9.2,90.3,47.1c1.6,5.2,2.7,10.6,3.1,16.1c-13.6,4.1-25.1,13.2-32.2,25.5l13.9,8c5.9-10.3,16.1-17.4,27.8-19.3
		l0.2,0c2.2-0.4,4.4-0.6,6.6-0.6c22.1,0,40,17.9,40,40s-17.9,40-40,40h-32v16h32c30.9,0,56-25.1,56-56s-25.1-56-56-56h-0.4
		c-4.5-48.5-47.4-84.1-95.9-79.6c-2.7,0.2-5.4,0.6-8.1,1.1c-3.6-44-42.2-76.9-86.2-73.3c-31.3,2.5-58.2,23.1-68.8,52.6
		c-9.2-3.2-19-4.8-28.7-4.8c-43.8,0.2-80.9,32.4-87.1,75.8C27.2,152.5,6.9,193.3,19.6,231C29.5,260.3,57,280.1,88,280z"/>
	<rect x="120" y="264" class="st1" width="16" height="16"/>
	<rect x="376" y="264" class="st1" width="16" height="16"/>
	<path class="st1" d="M400,424H272v48h128V424z M384,456h-96v-16h96V456z"/>
	<rect x="112" y="456" class="st1" width="16" height="16"/>
	<rect x="136" y="456" class="st1" width="16" height="16"/>
	<rect x="160" y="456" class="st1" width="16" height="16"/>
	<rect x="184" y="456" class="st1" width="16" height="16"/>
	<rect x="112" y="424" class="st0" width="16" height="16"/>
	<rect x="136" y="424" class="st0" width="16" height="16"/>
	<rect x="160" y="424" class="st0" width="16" height="16"/>
	<rect x="184" y="424" class="st1" width="16" height="16"/>
	<rect x="208" y="456" class="st0" width="16" height="16"/>
	<rect x="208" y="424" class="st1" width="16" height="16"/>
	<rect x="232" y="456" class="st1" width="16" height="16"/>
	<rect x="232" y="424" class="st1" width="16" height="16"/>
	<path class="st1" d="M264,337.5V320h40v-16h-24v-24h56c13.3,0,24-10.7,24-24v-96c0-13.3-10.7-24-24-24H176c-13.3,0-24,10.7-24,24
		v96c0,13.3,10.7,24,24,24h56v24h-24v16h40v17.5c-6.8,2.4-12.1,7.8-14.5,14.5H16v16h217.5c2.4,6.8,7.8,12.1,14.5,14.5V400H104
		c-13.3,0-24,10.7-24,24v48c0,13.3,10.7,24,24,24h304c13.3,0,24-10.7,24-24v-48c0-13.3-10.7-24-24-24H264v-17.5
		c6.8-2.4,12.1-7.8,14.5-14.5H496v-16H278.5C276.1,345.2,270.8,339.9,264,337.5z M176,264c-4.4,0-8-3.6-8-8v-96c0-4.4,3.6-8,8-8h160
		c4.4,0,8,3.6,8,8v96c0,4.4-3.6,8-8,8H176z M248,280h16v24h-16V280z M416,424v48c0,4.4-3.6,8-8,8H104c-4.4,0-8-3.6-8-8v-48
		c0-4.4,3.6-8,8-8h304C412.4,416,416,419.6,416,424z M256,368c-4.4,0-8-3.6-8-8s3.6-8,8-8s8,3.6,8,8S260.4,368,256,368z"/>
	<rect x="248" y="240" class="st1" width="16" height="16"/>
	<rect x="272" y="240" class="st1" width="16" height="16"/>
	<rect x="224" y="240" class="st1" width="16" height="16"/>
</g>
</svg>
