<?xml version="1.0" encoding="utf-8"?>
<!-- Generator: Adobe Illustrator 23.0.0, SVG Export Plug-In . SVG Version: 6.00 Build 0)  -->
<svg version="1.1" id="Capa_1" xmlns="http://www.w3.org/2000/svg" xmlns:xlink="http://www.w3.org/1999/xlink" x="0px" y="0px"
	 viewBox="0 0 512 512" style="enable-background:new 0 0 512 512;" xml:space="preserve">
<style type="text/css">
	.st0{fill:#06C129;}
	.st1{fill:#282828;}
</style>
<g>
	<g>
		<path class="st0" d="M241.5,182.7c-25.6-15.8-55-22.5-85-19.2c-43.7,4.8-82.3,30.9-103.3,69.7c-2.6,4.9-0.8,10.9,4,13.6
			c1.5,0.8,3.1,1.2,4.7,1.2c3.6,0,7-1.9,8.8-5.2c17.9-33.1,50.7-55.2,87.9-59.3c25.5-2.8,50.5,2.8,72.3,16.3
			c4.7,2.9,10.9,1.4,13.8-3.2C247.6,191.8,246.2,185.6,241.5,182.7z"/>
	</g>
</g>
<g>
	<g>
		<path class="st1" d="M52.3,279.8H10c-5.5,0-10,4.5-10,10s4.5,10,10,10h42.3c5.5,0,10-4.5,10-10S57.9,279.8,52.3,279.8z"/>
	</g>
</g>
<g>
	<g>
		<path class="st0" d="M458.9,233.2c-21-38.8-59.6-64.9-103.3-69.7c-17.6-1.9-35-0.5-51.8,4.4c-5.3,1.5-8.4,7.1-6.8,12.4
			c1.5,5.3,7.1,8.4,12.4,6.8c14.2-4.1,29-5.4,44-3.7c37.2,4.1,70.1,26.3,87.9,59.3c1.8,3.3,5.3,5.2,8.8,5.2c1.6,0,3.2-0.4,4.7-1.2
			C459.7,244.2,461.5,238.1,458.9,233.2z"/>
	</g>
</g>
<g>
	<g>
		<path class="st1" d="M502,279.8h-42.3c-5.5,0-10,4.5-10,10c0,5.5,4.5,10,10,10H502c5.5,0,10-4.5,10-10S507.5,279.8,502,279.8z"/>
	</g>
</g>
<g>
	<g>
		<path class="st1" d="M502,386.3h-50.2c-23.7,0-46.2,9.2-63.5,26c-30.5,29.5-68.8,51.1-105.1,59.2c-1,0.2-2.1,0.3-3.1,0.3
			c-6.5,0-12.2-4.6-13.6-10.9c-0.8-3.6-0.2-7.4,1.8-10.6s5.1-5.3,8.8-6.2c34.4-7.7,65.8-24.9,90.9-49.8c14.1-14,24.6-30.9,30.1-48.9
			c2.9-9.5,4.4-18.7,4.4-27.4c0-17-7-33.2-19.7-45.7c-13.9-13.6-33-21.1-52.4-20.7c-15.3,0.3-29.7,5.5-41.8,14.9
			c-3,2.3-6.7,3.3-10.5,2.8c-3.8-0.5-7.1-2.4-9.4-5.5c-4.6-6.1-3.2-14.9,3-19.7c17.4-13.4,38.2-20.5,60.2-20.5
			c31.3,0,61.1,15.2,79.7,40.6c3.3,4.5,9.5,5.4,14,2.2c4.5-3.3,5.4-9.5,2.2-14c-22.3-30.5-58.1-48.8-95.8-48.8
			c-26.5,0-51.6,8.5-72.5,24.7c-1.3,1-2.5,2-3.5,3.2c-1.1-1.1-2.3-2.2-3.5-3.2c-20.9-16.2-46-24.7-72.5-24.7
			c-37.7,0-73.5,18.2-95.8,48.8c-3.3,4.5-2.3,10.7,2.2,14c4.5,3.3,10.7,2.3,14-2.2c18.6-25.4,48.3-40.6,79.7-40.6
			c22,0,42.9,7.1,60.2,20.5c6.2,4.8,7.5,13.7,3,19.7c-2.3,3-5.6,5-9.4,5.5c-3.8,0.5-7.5-0.5-10.5-2.8c-12-9.4-26.5-14.6-41.8-14.9
			c-19.4-0.4-38.5,7.1-52.4,20.7c-12.7,12.4-19.7,28.7-19.7,45.7c0,8.7,1.5,17.9,4.4,27.4c5.6,17.9,16,34.8,30.1,48.9
			c25.1,24.9,56.5,42.1,90.9,49.8c3.6,0.8,6.8,3,8.8,6.2s2.7,6.9,1.8,10.6c-1.4,6.3-7.2,10.9-13.6,10.9c-1,0-2.1-0.1-3.1-0.3
			c-36.3-8.1-74.6-29.7-105.1-59.2c-17.3-16.7-39.9-26-63.5-26H10c-5.5,0-10,4.5-10,10s4.5,10,10,10h50.2c18.4,0,36.1,7.2,49.6,20.3
			c33,32,74.8,55.4,114.6,64.3c2.4,0.5,5,0.8,7.4,0.8c9.2,0,17.8-3.8,24.1-10.1c6.2,6.3,14.8,10.1,24.1,10.1c2.5,0,5-0.3,7.4-0.8
			c39.8-8.9,81.6-32.4,114.6-64.3c13.5-13.1,31.2-20.3,49.6-20.3H502c5.5,0,10-4.5,10-10S507.5,386.3,502,386.3z M256,433.8
			c-4.5-4.6-10.3-7.8-16.7-9.2c-30.7-6.9-58.8-22.3-81.2-44.5c-11.8-11.8-20.5-25.8-25.1-40.6c-2.3-7.6-3.5-14.8-3.5-21.5
			c0-11.6,4.9-22.7,13.7-31.4c10.1-9.8,23.9-15.3,37.9-15c10.9,0.2,21.3,3.9,29.9,10.7c7.3,5.7,16.3,8.1,25.4,6.9
			c7.5-1,14.3-4.4,19.5-9.6c5.3,5.3,12,8.6,19.5,9.6c9.1,1.2,18.1-1.2,25.4-6.9c8.6-6.7,19-10.4,29.9-10.7c14-0.3,27.9,5.1,37.9,15
			c8.8,8.7,13.7,19.8,13.7,31.4c0,6.7-1.2,13.9-3.5,21.5c-4.6,14.8-13.3,28.8-25.1,40.6c-22.4,22.3-50.5,37.6-81.2,44.5
			C266.3,426,260.5,429.2,256,433.8z"/>
	</g>
</g>
<g>
	<g>
		<path class="st0" d="M256,20.2c-5.5,0-10,4.5-10,10v59.5c0,5.5,4.5,10,10,10c5.5,0,10-4.5,10-10V30.2
			C266,24.7,261.5,20.2,256,20.2z"/>
	</g>
</g>
<g>
	<g>
		<path class="st0" d="M199.3,105.6l-23.9-23.9c-3.9-3.9-10.2-3.9-14.1,0c-3.9,3.9-3.9,10.2,0,14.1l23.9,23.9c2,1.9,4.5,2.9,7.1,2.9
			c2.6,0,5.1-1,7.1-2.9C203.2,115.9,203.2,109.5,199.3,105.6z"/>
	</g>
</g>
<g>
	<g>
		<path class="st0" d="M146.1,52.5c-4.1-3.7-10.4-3.4-14.1,0.7c-3.7,4.1-3.4,10.4,0.7,14.1c1.9,1.7,4.3,2.6,6.7,2.6
			c2.7,0,5.4-1.1,7.4-3.3l0,0C150.5,62.5,150.2,56.2,146.1,52.5z"/>
	</g>
</g>
<g>
	<g>
		<path class="st0" d="M379.1,53.4c-3.9-3.9-10.2-3.9-14.1,0l-53.8,53.8c-3.9,3.9-3.9,10.2,0,14.1c2,2,4.5,2.9,7.1,2.9
			c2.6,0,5.1-1,7.1-2.9l53.8-53.8C383,63.6,383,57.3,379.1,53.4z"/>
	</g>
</g>
<g>
	<g>
		<circle class="st0" cx="275.9" cy="191.2" r="10"/>
	</g>
</g>
</svg>
