<?xml version="1.0"?>
<svg xmlns="http://www.w3.org/2000/svg" viewBox="0 0 64 64" width="512" height="512"><g id="Cloud_smartphone" data-name="Cloud smartphone"><path d="M55,21h-.045a11.014,11.014,0,0,0-12.988-9.813A10,10,0,0,0,22.593,8.6,10.786,10.786,0,0,0,19,8,11.049,11.049,0,0,0,8.107,17.471,9,9,0,0,0,11,35h2V33H11A7,7,0,0,1,9.275,19.21l.016,0v0a7.022,7.022,0,0,1,5.044.635l.955-1.758A9.014,9.014,0,0,0,11,17c-.26,0-.517.025-.775.047A9.038,9.038,0,0,1,19,10a8.774,8.774,0,0,1,3.809.853l.008,0h0a9.014,9.014,0,0,1,4.775,5.458l1.909-.6a11.014,11.014,0,0,0-5.077-6.268,7.992,7.992,0,0,1,15.566,2.326,11.076,11.076,0,0,0-3.719,2.4l1.4,1.424a9.035,9.035,0,0,1,3.616-2.182h0a9,9,0,0,1,11.67,7.9,6.919,6.919,0,0,0-4.019,3.19l1.736.994a4.935,4.935,0,0,1,3.476-2.418l.029-.006A4.515,4.515,0,0,1,55,23a5,5,0,0,1,0,10H51v2h4a7,7,0,0,0,0-14Z"/><rect x="14" y="33" width="2" height="2"/><rect x="48" y="33" width="2" height="2"/><path d="M42,17H22a5.006,5.006,0,0,0-5,5V57a5.006,5.006,0,0,0,5,5H42a5.006,5.006,0,0,0,5-5V22A5.006,5.006,0,0,0,42,17Zm-5,2v1a1,1,0,0,1-1,1H28a1,1,0,0,1-1-1V19Zm8,38a3,3,0,0,1-3,3H22a3,3,0,0,1-3-3V22a3,3,0,0,1,3-3h3v1a3,3,0,0,0,3,3h8a3,3,0,0,0,3-3V19h3a3,3,0,0,1,3,3Z"/><rect x="31" y="56" width="2" height="2"/><rect x="35" y="56" width="2" height="2"/><rect x="27" y="56" width="2" height="2"/><polygon points="33 49 35 49 35 31.851 37.219 34.625 38.781 33.375 33 26.149 33 49"/><polygon points="31 29 29 29 29 46.149 26.781 43.375 25.219 44.625 31 51.851 31 29"/><rect x="29" y="26" width="2" height="2"/><rect x="33" y="50" width="2" height="2"/></g></svg>
