<?xml version="1.0" encoding="utf-8"?>
<!-- Generator: Adobe Illustrator 23.0.0, SVG Export Plug-In . SVG Version: 6.00 Build 0)  -->
<svg version="1.1" id="Capa_1" xmlns="http://www.w3.org/2000/svg" xmlns:xlink="http://www.w3.org/1999/xlink" x="0px" y="0px"
	 viewBox="0 0 60 60" style="enable-background:new 0 0 60 60;" xml:space="preserve">
<style type="text/css">
	.st0{fill:#06C129;}
	.st1{fill:#282828;}
</style>
<g>
	<path class="st0" d="M30,28c-2.2,0-4,1.8-4,4s1.8,4,4,4s4-1.8,4-4S32.2,28,30,28z M30,34c-1.1,0-2-0.9-2-2s0.9-2,2-2s2,0.9,2,2
		S31.1,34,30,34z"/>
	<path class="st0" d="M30,23c-5,0-9,4-9,9c0,3.2,1.7,6.1,4.4,7.7c0.5,0.3,1.1,0.1,1.4-0.4c0.3-0.5,0.1-1.1-0.4-1.4
		c-2.1-1.3-3.5-3.6-3.5-6c0-3.9,3.1-7,7-7s7,3.1,7,7c0,2.5-1.3,4.8-3.5,6c-0.5,0.3-0.6,0.9-0.4,1.4c0.2,0.3,0.5,0.5,0.9,0.5
		c0.2,0,0.3,0,0.5-0.1c2.7-1.6,4.4-4.6,4.4-7.7C39,27,35,23,30,23z"/>
	<path class="st1" d="M30,2C13.5,2,0,15.5,0,32c0,10.6,5.7,20.5,14.8,25.8c0.2,0.1,0.3,0.1,0.5,0.1c0.3,0,0.7-0.2,0.9-0.5
		c0.3-0.5,0.1-1.1-0.4-1.4C7.3,51.1,2,41.9,2,32C2,16.6,14.6,4,30,4s28,12.6,28,28c0,9.9-5.3,19.1-13.8,24.1
		c-0.5,0.3-0.6,0.9-0.4,1.4c0.3,0.5,0.9,0.6,1.4,0.4C54.3,52.5,60,42.6,60,32C60,15.5,46.5,2,30,2z"/>
	<path class="st1" d="M53,32C53,19.3,42.7,9,30,9S7,19.3,7,32c0,8.1,4.3,15.7,11.3,19.8c0.2,0.1,0.3,0.1,0.5,0.1
		c0.3,0,0.7-0.2,0.9-0.5c0.3-0.5,0.1-1.1-0.4-1.4C13,46.3,9,39.4,9,32c0-11.6,9.4-21,21-21s21,9.4,21,21c0,7.4-4,14.3-10.3,18.1
		c-0.5,0.3-0.6,0.9-0.4,1.4c0.3,0.5,0.9,0.6,1.4,0.4C48.7,47.7,53,40.1,53,32z"/>
	<path class="st1" d="M46,32c0-8.8-7.2-16-16-16s-16,7.2-16,16c0,5.6,3,10.9,7.9,13.8c0.5,0.3,1.1,0.1,1.4-0.4
		c0.3-0.5,0.1-1.1-0.4-1.4c-4.3-2.5-6.9-7.1-6.9-12c0-7.7,6.3-14,14-14s14,6.3,14,14c0,4.9-2.6,9.5-6.9,12c-0.5,0.3-0.6,0.9-0.4,1.4
		c0.2,0.3,0.5,0.5,0.9,0.5c0.2,0,0.3,0,0.5-0.1C43,42.9,46,37.6,46,32z"/>
</g>
</svg>
