<?xml version="1.0" encoding="utf-8"?>
<!-- Generator: Adobe Illustrator 23.0.0, SVG Export Plug-In . SVG Version: 6.00 Build 0)  -->
<svg version="1.1" id="Capa_1" xmlns="http://www.w3.org/2000/svg" xmlns:xlink="http://www.w3.org/1999/xlink" x="0px" y="0px"
	 viewBox="0 0 468 468" style="enable-background:new 0 0 468 468;" xml:space="preserve">
<style type="text/css">
	.st0{fill:#06C129;}
	.st1{fill:#282828;}
</style>
<g>
	<g>
		<g>
			<path class="st0" d="M403.3,3.4L403.3,3.4c-2.6-3.6-7.6-4.4-11.2-1.8c-3.5,2.6-4.3,7.5-1.8,11.1c47.6,66.6,47.6,156.1,0,222.7
				c-2.6,3.6-1.8,8.6,1.8,11.2c0,0,0,0,0,0c3.6,2.6,8.6,1.7,11.2-1.9C454.9,172.5,454.9,75.6,403.3,3.4z"/>
			<path class="st0" d="M75.8,1.5C75.8,1.5,75.8,1.5,75.8,1.5c-3.6-2.6-8.6-1.7-11.2,1.9c-51.6,72.2-51.6,169.2,0,241.3
				c2.6,3.6,7.6,4.4,11.2,1.8c3.5-2.6,4.3-7.5,1.8-11.1c-47.6-66.6-47.6-156.1,0-222.7C80.3,9.1,79.4,4.1,75.8,1.5z"/>
			<path class="st0" d="M126.7,40.7c2.7-3.5,2.1-8.5-1.4-11.2l0,0c-3.5-2.7-8.5-2.1-11.2,1.4c-42.7,54.7-42.7,131.5,0,186.3
				c2.7,3.5,7.7,4.1,11.2,1.4s4.1-7.7,1.4-11.2C88.5,158.4,88.5,89.7,126.7,40.7z"/>
			<path class="st0" d="M342.7,29.5L342.7,29.5c-3.5,2.7-4.1,7.7-1.4,11.2c38.2,49,38.2,117.7,0,166.6c-2.7,3.5-2.1,8.5,1.4,11.2
				s8.5,2.1,11.2-1.4c42.7-54.7,42.7-131.5,0-186.3C351.2,27.4,346.2,26.8,342.7,29.5z"/>
			<path class="st0" d="M292.2,69.3c29,30.7,29,78.7,0,109.5c-3,3.2-2.9,8.3,0.3,11.3c0,0,0,0,0,0c3.2,3,8.3,2.9,11.3-0.3
				c0,0,0,0,0,0c34.8-36.9,34.8-94.5,0-131.4c-3-3.2-8.1-3.4-11.3-0.4C289.4,60.9,289.2,66,292.2,69.3
				C292.2,69.2,292.2,69.3,292.2,69.3z"/>
			<path class="st0" d="M169.9,192.2c4.4,0,8-3.6,8-8c0-2-0.8-4-2.2-5.5c-29-30.7-29-78.7,0-109.5c3.1-3.2,2.9-8.3-0.3-11.3
				c-3.2-3.1-8.3-2.9-11.3,0.3c0,0-0.1,0.1-0.1,0.1c-34.8,36.9-34.8,94.5,0,131.4C165.6,191.3,167.7,192.2,169.9,192.2z"/>
			<path class="st1" d="M337.8,458l-77.9-303.8c16.9-14.3,18.9-39.5,4.6-56.4C250.2,81,225,79,208.1,93.2s-18.9,39.5-4.6,56.4
				c1.4,1.7,3,3.2,4.6,4.6L130.3,458c-1.1,4.3,1.5,8.6,5.8,9.7c0,0,0,0,0,0c0.6,0.2,1.3,0.2,2,0.2c3.6,0,6.8-2.5,7.7-6l2.7-10.4
				c0.4-0.1,0.9-0.3,1.3-0.5l149.5-78.7l23,89.6c0.9,3.5,4.1,6,7.8,6c0.7,0,1.3-0.1,2-0.2C336.3,466.7,338.9,462.3,337.8,458
				C337.8,458,337.8,458,337.8,458z M260.6,221.7l-43.5-38.1l5.5-21.5c3.7,1.2,7.5,1.8,11.4,1.8c3.9-0.1,7.7-0.7,11.4-1.8
				L260.6,221.7z M234,100c13.3,0,24,10.7,24,24s-10.7,24-24,24s-24-10.7-24-24S220.8,100,234,100z M212.7,201l48.2,42.2l-71.2,47.4
				L212.7,201z M153.7,430.9l28.7-112l97.6,45.5L153.7,430.9z M194.3,306.8l75.3-50.2l24.9,96.9L194.3,306.8z"/>
		</g>
	</g>
</g>
</svg>
