<?xml version="1.0" encoding="utf-8"?>
<!-- Generator: Adobe Illustrator 23.0.0, SVG Export Plug-In . SVG Version: 6.00 Build 0)  -->
<svg version="1.1" id="Layer_1" xmlns="http://www.w3.org/2000/svg" xmlns:xlink="http://www.w3.org/1999/xlink" x="0px" y="0px"
	 viewBox="0 0 480 480" style="enable-background:new 0 0 480 480;" xml:space="preserve">
<style type="text/css">
	.st0{fill:#282828;}
	.st1{fill:#06C129;}
</style>
<path class="st0" d="M168,464h-32v16h144v-16h-32v-40h144c13.3,0,24-10.8,24-24V280h-16v48H16V112c0-4.4,3.6-8,8-8h168V88H24
	C10.8,88,0,98.8,0,112v288c0,13.3,10.8,24,24,24h144V464z M232,464h-48v-40h48V464z M24,408c-4.4,0-8-3.6-8-8v-56h384v56
	c0,4.4-3.6,8-8,8H24z"/>
<path class="st1" d="M224,376c0,8.8-7.2,16-16,16s-16-7.2-16-16s7.2-16,16-16S224,367.2,224,376z"/>
<path class="st1" d="M344,0c-75.1,0-136,60.9-136,136s60.9,136,136,136s136-60.9,136-136C479.9,60.9,419.1,0.1,344,0z M309.4,21.1
	c-9.9,14.2-17,30.2-21.1,47c-12.6-1.7-25-4.4-37.1-8.2C266.3,41.6,286.6,28,309.4,21.1z M241.7,73.5c14,4.8,28.4,8.2,43,10.3
	c-2.7,14.6-4.2,29.3-4.6,44.2h-55.8C225.7,108.7,231.6,90,241.7,73.5z M241.7,198.5c-10.1-16.5-16.1-35.2-17.3-54.5h55.8
	c0.3,14.8,1.9,29.6,4.6,44.2C270.1,190.2,255.7,193.6,241.7,198.5z M251.2,212c12.1-3.8,24.5-6.5,37.1-8.2c4,16.8,11.2,32.8,21.1,47
	C286.6,244,266.3,230.4,251.2,212z M336,254c-12.1-5.9-24-24.6-31.6-52.1c10.1-1,20.7-1.6,31.6-1.8V254z M336,184.1
	c-12.2,0.2-24,0.9-35.3,2.1c-2.6-13.9-4.1-28.1-4.5-42.3H336V184.1z M336,128h-39.8c0.3-14.2,1.8-28.3,4.5-42.2
	c11.3,1.2,23.2,1.9,35.3,2.1V128z M336,71.9c-10.9-0.2-21.5-0.8-31.6-1.8C312,42.6,323.9,23.9,336,18V71.9z M436.8,60
	c-12.1,3.8-24.5,6.5-37.1,8.2c-4-16.8-11.2-32.8-21.1-47C401.4,28,421.7,41.6,436.8,60z M352,18c12.1,5.9,24,24.6,31.6,52.1
	c-10.1,1-20.7,1.6-31.6,1.8V18z M352,87.9c12.2-0.2,24-0.9,35.3-2.1c2.6,13.9,4.1,28,4.5,42.2H352V87.9z M352,144h39.8
	c-0.3,14.2-1.8,28.3-4.5,42.3c-11.3-1.2-23.2-1.9-35.3-2.1V144z M352,254v-53.8c10.9,0.2,21.5,0.8,31.6,1.8
	C376,229.4,364.1,248.1,352,254z M378.6,250.9c9.9-14.2,17-30.2,21.1-47c12.6,1.7,25,4.4,37.1,8.2
	C421.7,230.4,401.4,244,378.6,250.9z M446.3,198.5c-14-4.8-28.4-8.2-43-10.3c2.7-14.6,4.2-29.4,4.6-44.2h55.8
	C462.3,163.3,456.4,182,446.3,198.5z M463.6,128h-55.8c-0.3-14.8-1.9-29.6-4.6-44.2c14.6-2,29-5.4,43-10.3
	C456.4,90,462.3,108.7,463.6,128z"/>
</svg>
