<?xml version="1.0" encoding="utf-8"?>
<!-- Generator: Adobe Illustrator 23.0.0, SVG Export Plug-In . SVG Version: 6.00 Build 0)  -->
<svg version="1.1" id="Layer_1" xmlns="http://www.w3.org/2000/svg" xmlns:xlink="http://www.w3.org/1999/xlink" x="0px" y="0px"
	 viewBox="0 0 512 512" style="enable-background:new 0 0 512 512;" xml:space="preserve">
<style type="text/css">
	.st0{fill:#06C129;}
	.st1{fill:#282828;}
</style>
<g id="Network-3">
	<path class="st0" d="M496,256c0-15.5-11.2-28.8-26.5-31.4c-13.4-94.5-87.6-168.7-182.1-182.1c-3-17.4-19.5-29-36.9-26
		c-13.3,2.3-23.7,12.7-26,26C130.1,55.9,55.9,130.1,42.5,224.6c-17.4,3-29,19.5-26,36.9c2.3,13.3,12.7,23.7,26,26
		c13.4,94.5,87.6,168.7,182.1,182.1c3,17.4,19.5,29,36.9,26c13.3-2.3,23.7-12.7,26-26c94.5-13.4,168.7-87.6,182.1-182.1
		C484.8,284.8,496,271.5,496,256z M256,32c8.8,0,16,7.2,16,16s-7.2,16-16,16c-8.8,0-16-7.2-16-16S247.2,32,256,32z M32,256
		c0-8.8,7.2-16,16-16s16,7.2,16,16c0,8.8-7.2,16-16,16S32,264.8,32,256z M256,480c-8.8,0-16-7.2-16-16s7.2-16,16-16
		c8.8,0,16,7.2,16,16S264.8,480,256,480z M286.1,453.6c-5.6-16.6-23.7-25.5-40.3-19.9c-9.4,3.2-16.7,10.5-19.9,19.9
		C139.6,440,72,372.4,58.4,286.1c16.6-5.6,25.5-23.7,19.9-40.3c-3.2-9.4-10.5-16.7-19.9-19.9C72,139.6,139.6,72,225.9,58.4
		c5.6,16.6,23.7,25.5,40.3,19.9c9.4-3.2,16.7-10.5,19.9-19.9C372.4,72,440,139.6,453.6,225.9c-16.6,5.6-25.5,23.7-19.9,40.3
		c3.2,9.4,10.5,16.7,19.9,19.9C440,372.4,372.4,440,286.1,453.6z M464,272c-8.8,0-16-7.2-16-16c0-8.8,7.2-16,16-16s16,7.2,16,16
		C480,264.8,472.8,272,464,272z"/>
	<path class="st0" d="M294,419.7l3.6,15.6c5.8-1.3,11.6-3,17.2-4.9l-5.1-15.2C304.6,416.9,299.3,418.4,294,419.7z"/>
	<path class="st0" d="M324.7,409.3l6.6,14.6c5.7-2.6,11.3-5.4,16.7-8.5l-8-13.8C335,404.4,329.9,407,324.7,409.3z"/>
	<path class="st0" d="M352.5,393.5l9.2,13.1c37-26,63.2-64.6,73.5-108.6l-15.6-3.6C410.2,334.4,386.3,369.8,352.5,393.5z"/>
	<path class="st0" d="M217.8,92.4l-3.6-15.6c-5.6,1.3-11.4,2.9-17,4.8l5.1,15.2C207.5,95,212.7,93.6,217.8,92.4z"/>
	<path class="st0" d="M187.4,102.7l-6.6-14.6c-5.7,2.6-11.3,5.4-16.7,8.6l8,13.8C177.1,107.6,182.2,105,187.4,102.7z"/>
	<path class="st0" d="M159.5,118.5l-9.2-13.1c-37,26-63.2,64.6-73.5,108.7l15.6,3.6C101.8,177.6,125.7,142.2,159.5,118.5z"/>
	<path class="st1" d="M408,256c0-83.9-68.1-152-152-152s-152,68.1-152,152s68.1,152,152,152C339.9,407.9,407.9,339.9,408,256z
		 M335.8,248c-0.4-22-3.5-43.8-9.3-65.1c12-3.2,23.6-7.5,34.8-13c18.1,22.1,28.7,49.5,30.4,78H335.8z M264,121.2
		c16.6,4.6,31.4,23.3,41.6,50.1c-13.7,2.6-27.6,4.1-41.6,4.5V121.2z M248,175.8c-14-0.4-27.9-1.9-41.6-4.5
		c10.2-26.8,25-45.5,41.6-50.1V175.8z M248,191.8V248h-55.8c0.5-20.8,3.6-41.4,9.2-61.4C216.7,189.7,232.3,191.4,248,191.8
		L248,191.8z M248,264v56.2c-15.7,0.4-31.3,2.1-46.6,5.1c-5.6-20-8.7-40.6-9.2-61.4H248z M248,336.2v54.5
		c-16.6-4.6-31.4-23.3-41.6-50.1C220.1,338.1,234,336.6,248,336.2z M264,336.2c14,0.4,27.9,1.9,41.6,4.4
		c-10.2,26.8-25,45.4-41.6,50.1V336.2z M310.6,325.4c-15.4-3-31-4.7-46.6-5.1V264h55.8C319.3,284.8,316.2,305.4,310.6,325.4
		L310.6,325.4z M264,248v-56.2c15.7-0.4,31.3-2.1,46.6-5.2c5.6,20,8.7,40.6,9.2,61.4H264z M321.5,167.8
		c-5.2-14.8-12.9-28.6-22.8-40.8c19.1,6.4,36.6,16.9,51.1,30.8C340.7,161.9,331.2,165.2,321.5,167.8z M190.5,167.8
		c-9.7-2.5-19.2-5.8-28.4-10c14.5-13.9,32-24.5,51.1-30.8C203.4,139.2,195.7,153,190.5,167.8z M185.5,183c-5.8,21.2-8.9,43.1-9.3,65
		h-55.8c1.6-28.6,12.3-55.9,30.4-78C161.9,175.4,173.6,179.8,185.5,183L185.5,183z M176.2,264c0.4,22,3.5,43.8,9.3,65
		c-12,3.2-23.6,7.5-34.8,13c-18.1-22.1-28.7-49.5-30.4-78H176.2z M190.5,344.3c5.2,14.8,12.9,28.6,22.7,40.8
		c-19.1-6.4-36.6-16.9-51.1-30.8C171.3,350.1,180.8,346.8,190.5,344.3L190.5,344.3z M321.5,344.3c9.7,2.5,19.2,5.8,28.4,9.9
		c-14.6,13.9-32,24.5-51.1,30.8C308.6,372.8,316.3,359.1,321.5,344.3L321.5,344.3z M326.5,329.1c5.8-21.2,8.9-43.1,9.3-65.1h55.8
		c-1.6,28.6-12.2,55.9-30.4,78C350.1,336.5,338.5,332.2,326.5,329.1L326.5,329.1z"/>
</g>
</svg>
