<?xml version="1.0" encoding="utf-8"?>
<!-- Generator: Adobe Illustrator 23.0.0, SVG Export Plug-In . SVG Version: 6.00 Build 0)  -->
<svg version="1.1" id="Layer_1" xmlns="http://www.w3.org/2000/svg" xmlns:xlink="http://www.w3.org/1999/xlink" x="0px" y="0px"
	 viewBox="0 0 512 512" style="enable-background:new 0 0 512 512;" xml:space="preserve">
<style type="text/css">
	.st0{fill:#06C129;}
	.st1{fill:#282828;}
</style>
<g id="Protect">
	<path class="st0" d="M168,168c0-48.6,39.4-88,88-88s88,39.4,88,88v80h-38.6L376,358.9L446.6,248H408v-80c0-83.9-68.1-152-152-152
		S104,84.1,104,168v96h64V168z M152,248h-32v-80c0-75.1,60.9-136,136-136s136,60.9,136,136v96h25.4L376,329.1L334.6,264H360v-96
		c0-57.4-46.6-104-104-104s-104,46.6-104,104V248z"/>
	<path class="st1" d="M416,192v16h32v184c-0.1,48.6-39.4,87.9-88,88H152c-48.6-0.1-87.9-39.4-88-88V208h32v-16H48v200
		c0.1,57.4,46.6,103.9,104,104h208c57.4-0.1,103.9-46.6,104-104V192H416z"/>
	<path class="st0" d="M96,392c0,30.9,25.1,56,56,56h32v-16h-32c-22.1,0-40-17.9-40-40v-80H96V392z"/>
	<path class="st0" d="M408,392c0,22.1-17.9,40-40,40h-40v16h40c30.9,0,56-25.1,56-56v-24h-16V392z"/>
	<rect x="176" y="192" class="st1" width="160" height="16"/>
	<path class="st0" d="M256,448c13.3,0,24-10.7,24-24v-57.1c0.1-2.8,1.7-5.3,4.2-6.6c26.7-15.6,35.7-49.9,20.2-76.6
		c-15.6-26.7-49.9-35.7-76.6-20.2c-26.7,15.6-35.7,49.9-20.2,76.6c4.9,8.4,11.9,15.4,20.3,20.2c2.4,1.2,4,3.7,4.1,6.4V424
		C232,437.3,242.7,448,256,448z M216,312c0-22.1,17.9-40,40-40c0,0,0.1,0,0.1,0c2.9,0,5.7,0.3,8.5,0.9c15.3,3.3,27.3,15.4,30.5,30.7
		c3.5,16.9-4.1,34.2-19,42.9c-7.4,4.1-12.1,11.9-12.2,20.4V424c0,4.4-3.6,8-8,8s-8-3.6-8-8v-57.1c-0.1-8.4-4.7-16.2-12.1-20.3
		C223.6,339.4,216,326.3,216,312z"/>
	<rect x="248" y="280" class="st0" width="16" height="16"/>
	<rect x="248" y="304" class="st0" width="16" height="16"/>
	<rect x="248" y="328" class="st0" width="16" height="16"/>
	<rect x="200" y="432" class="st0" width="16" height="16"/>
	<rect x="296" y="432" class="st0" width="16" height="16"/>
	<rect x="96" y="280" class="st0" width="16" height="16"/>
	<rect x="408" y="336" class="st0" width="16" height="16"/>
</g>
</svg>
