<svg height="464pt" viewBox="0 0 464 464" width="464pt" xmlns="http://www.w3.org/2000/svg"><path d="m0 32h32v48h-32zm0 0"/><path d="m126.503906 96-20.464844 98.199219 6.90625 13.800781-16.847656 33.695312.054688.007813-22.984375 110.296875h-25.167969v-104h-16v104h-32v16h69.832031l-20 96h23.664063l76.671875-368zm0 0"/><path d="m272 80h48v-80h-64v32h16zm0 0"/><path d="m224 368h16v64h-16zm0 0"/><path d="m368 29.769531-32-10.671875v60.902344h32zm0 0"/><path d="m48 0h48v80h-48zm0 0"/><path d="m208 48h48v32h-48zm0 0"/><path d="m192 28.945312-24-12-24 12v51.054688h48zm0 0"/><path d="m64 232h19.054688l12-24-12-24h-83.054688v48zm0 0"/><path d="m432 248h-16v104h-25.167969l-22.984375-110.296875.054688-.007813-16.847656-33.695312 6.90625-13.800781-20.464844-98.199219h-23.664063l76.671875 368h23.664063l-20-96h69.832031v-16h-32zm0 0"/><path d="m368.945312 208 12 24h83.054688v-48h-83.054688zm0 0"/><path d="m416 0h48v80h-48zm0 0"/><path d="m166.503906 96-76.664062 368h284.328125l-76.664063-368zm89.496094 352h-48v-96h48zm0-112h-48v-96h48zm0-112h-48v-96h48zm0 0"/><path d="m224 144h16v64h-16zm0 0"/><path d="m224 256h16v64h-16zm0 0"/></svg>