<?xml version="1.0"?>
<svg xmlns="http://www.w3.org/2000/svg" viewBox="0 0 64 64" width="512" height="512"><g id="Outline"><path d="M20.71,5.29a1.047,1.047,0,0,0-1.42,0,1.155,1.155,0,0,0-.21.33.943.943,0,0,0,0,.76,1.155,1.155,0,0,0,.21.33,1.014,1.014,0,0,0,1.42,0,1.155,1.155,0,0,0,.21-.33.943.943,0,0,0,0-.76A1.155,1.155,0,0,0,20.71,5.29Z"/><path d="M59,25H58V17a3,3,0,0,0-3-3H38V5a3,3,0,0,0-3-3H5A3,3,0,0,0,2,5V59a3,3,0,0,0,3,3H35a3,3,0,0,0,3-3V50H55a3,3,0,0,0,3-3V39h1a3,3,0,0,0,3-3V28A3,3,0,0,0,59,25Zm-3-8v1H21V16H55A1,1,0,0,1,56,17ZM13,40a7.981,7.981,0,0,1-5-1.755V25.755A8,8,0,1,1,13,40ZM4,5A1,1,0,0,1,5,4H35a1,1,0,0,1,1,1V8H4ZM4,59V56H17.78a2.954,2.954,0,0,0,0,4H5A1,1,0,0,1,4,59Zm16,0a1,1,0,1,1,1-1A1,1,0,0,1,20,59Zm16,0a1,1,0,0,1-1,1H22.22a2.954,2.954,0,0,0,0-4H36Zm0-5H4V10H36v4H21V12H19V24.019a9.938,9.938,0,0,0-11-.672V20H6V44H8V40.653a9.938,9.938,0,0,0,11-.672V52h2V50H36Zm20-7a1,1,0,0,1-1,1H21V46H56Zm0-3H21V37.975a9.925,9.925,0,0,0,0-11.95V20H56v5H47a7,7,0,0,0,0,14h9Zm4-8a1,1,0,0,1-1,1H47a5,5,0,0,1,0-10H59a1,1,0,0,1,1,1Z"/><path d="M47,29a3,3,0,1,0,3,3A3,3,0,0,0,47,29Zm0,4a1,1,0,1,1,1-1A1,1,0,0,1,47,33Z"/><path d="M13,29a1,1,0,0,1,1,1h2a3,3,0,0,0-2-2.816V26H12v1.184A2.993,2.993,0,0,0,13,33a1,1,0,1,1-1,1H10a3,3,0,0,0,2,2.816V38h2V36.816A2.993,2.993,0,0,0,13,31a1,1,0,0,1,0-2Z"/></g></svg>
